<?xml version="1.0" encoding="UTF-8"?> <svg xmlns="http://www.w3.org/2000/svg" id="Layer_1" data-name="Layer 1" width="512" height="512" viewBox="0 0 512 512"><defs><style>.cls-1{fill:#6f4f38;}.cls-2{fill:#387d44;}</style></defs><path class="cls-1" d="M40.1372,99.4178H471.8626A40.1373,40.1373,0,0,1,512,139.5551v232.89a40.1373,40.1373,0,0,1-40.1373,40.1373H40.1374A40.1373,40.1373,0,0,1,0,372.4449v-232.89A40.1371,40.1371,0,0,1,40.1372,99.4178Z"></path><path class="cls-2" d="M40.1374,118.6329H471.8626a20.9223,20.9223,0,0,1,20.9223,20.9223v232.89a20.9221,20.9221,0,0,1-20.9221,20.9221H40.1374a20.9223,20.9223,0,0,1-20.9223-20.9223v-232.89a20.9223,20.9223,0,0,1,20.9223-20.9223Z"></path></svg> 